<svg width="17" height="18" viewBox="0 0 17 18" fill="none" xmlns="http://www.w3.org/2000/svg">
<g clip-path="url(#clip0_18_5251)">
<path d="M2.95459 4.09941V14.6357" stroke="white" stroke-linecap="round"/>
<path d="M14.9385 7.26181V14.6407" stroke="white" stroke-linecap="round" stroke-linejoin="round"/>
<path d="M4.95215 1.99114H9.94544" stroke="white" stroke-linecap="round" stroke-linejoin="round"/>
<path d="M4.95215 16.749H12.9414" stroke="white" stroke-linecap="round"/>
<path d="M14.9387 14.6407C14.9442 15.6937 13.9401 16.749 12.9414 16.749" stroke="white" stroke-linecap="round" stroke-linejoin="round"/>
<path d="M2.95483 14.6407C2.95483 15.6949 3.95349 16.749 4.95215 16.749" stroke="white" stroke-linecap="round" stroke-linejoin="round"/>
<path d="M2.95483 4.09788C2.95483 3.04528 3.95349 2.01462 4.95215 1.99114" stroke="white" stroke-linecap="round" stroke-linejoin="round"/>
<path d="M14.9331 7.26654L9.94531 1.99114" stroke="white" stroke-linecap="round" stroke-linejoin="round"/>
<path d="M9.94507 5.15354C9.94814 6.20194 10.9478 7.26181 11.9424 7.26181" stroke="white" stroke-linecap="round" stroke-linejoin="round"/>
<path d="M9.94531 5.15354V1.99114" stroke="white" stroke-linecap="round" stroke-linejoin="round"/>
<path d="M11.9424 7.26181H14.9384" stroke="white" stroke-linecap="round" stroke-linejoin="round"/>
<path d="M4.95215 14.6407H7.94812" stroke="white" stroke-linecap="round" stroke-linejoin="round"/>
<path d="M4.95215 12.5325H9.94544" stroke="white" stroke-linecap="round" stroke-linejoin="round"/>
<path d="M4.95215 10.4242H7.94812" stroke="white" stroke-linecap="round" stroke-linejoin="round"/>
</g>
<defs>
<clipPath id="clip0_18_5251">
<rect width="10.9785" height="11.8661" fill="white" transform="translate(0.957031 0.937008)"/>
</clipPath>
</defs>
</svg>
