<svg width="25" height="24" viewBox="0 0 25 24" fill="none" xmlns="http://www.w3.org/2000/svg">
<g id="fluent:chat-12-regular">
<path id="Vector" d="M8.50001 11C8.50001 10.7348 8.60537 10.4805 8.7929 10.2929C8.98044 10.1054 9.2348 10 9.50001 10H15.5C15.7652 10 16.0196 10.1054 16.2071 10.2929C16.3947 10.4805 16.5 10.7348 16.5 11C16.5 11.2653 16.3947 11.5196 16.2071 11.7071C16.0196 11.8947 15.7652 12 15.5 12H9.50001C9.2348 12 8.98044 11.8947 8.7929 11.7071C8.60537 11.5196 8.50001 11.2653 8.50001 11ZM9.50001 14C9.2348 14 8.98044 14.1054 8.7929 14.2929C8.60537 14.4805 8.50001 14.7348 8.50001 15C8.50001 15.2653 8.60537 15.5196 8.7929 15.7071C8.98044 15.8947 9.2348 16 9.50001 16H13.5C13.7652 16 14.0196 15.8947 14.2071 15.7071C14.3947 15.5196 14.5 15.2653 14.5 15C14.5 14.7348 14.3947 14.4805 14.2071 14.2929C14.0196 14.1054 13.7652 14 13.5 14H9.50001ZM2.50001 12C2.50051 9.80763 3.22149 7.67615 4.552 5.93363C5.8825 4.1911 7.74878 2.93411 9.86361 2.35611C11.9784 1.77811 14.2246 1.91112 16.2565 2.73469C18.2883 3.55826 19.9932 5.02673 21.1087 6.9141C22.2243 8.80148 22.6886 11.0032 22.4304 13.1803C22.1721 15.3574 21.2056 17.3894 19.6794 18.9634C18.1533 20.5374 16.1521 21.5662 13.984 21.8916C11.8159 22.2169 9.60093 21.8208 7.68001 20.764L3.79201 21.948C3.61859 22.0009 3.43408 22.0056 3.2582 21.9616C3.08232 21.9177 2.92169 21.8267 2.79351 21.6985C2.66532 21.5704 2.57439 21.4097 2.53044 21.2338C2.48649 21.058 2.49118 20.8735 2.54401 20.7L3.72801 16.806C2.91992 15.3332 2.49749 13.68 2.50001 12ZM12.5 4.00003C11.0799 3.99992 9.68533 4.37782 8.45957 5.09495C7.23381 5.81207 6.22103 6.84255 5.52527 8.08056C4.8295 9.31856 4.47582 10.7195 4.50055 12.1394C4.52529 13.5593 4.92755 14.947 5.66601 16.16C5.73932 16.2805 5.7863 16.4152 5.80388 16.5551C5.82146 16.6951 5.80924 16.8371 5.76801 16.972L5.00201 19.49L7.51601 18.724C7.65133 18.6828 7.79385 18.6708 7.93417 18.6887C8.07449 18.7066 8.20941 18.7541 8.33001 18.828C9.38437 19.4718 10.5735 19.8626 11.8041 19.9698C13.0348 20.0771 14.2736 19.8979 15.4234 19.4463C16.5733 18.9946 17.6029 18.2829 18.4316 17.3667C19.2603 16.4506 19.8656 15.355 20.2 14.1658C20.5344 12.9766 20.5889 11.7261 20.3592 10.5123C20.1295 9.29854 19.6218 8.15445 18.8759 7.16971C18.13 6.18497 17.1662 5.38635 16.06 4.83643C14.9539 4.2865 13.7353 4.00023 12.5 4.00003Z" fill="white"/>
</g>
</svg>
