<svg width="390" height="586" viewBox="0 0 390 586" fill="none" xmlns="http://www.w3.org/2000/svg">
<rect x="98" width="292" height="97" rx="48.5" fill="#D4E0ED"/>
<path d="M293 97C293 42.8761 336.876 -1 391 -1V245C391 272.062 369.062 294 342 294C314.938 294 293 272.062 293 245V97Z" fill="#5926A6"/>
<path d="M48.7542 196.364C21.828 196.364 0 218.157 0 245.041C0 271.924 21.828 293.717 48.7542 293.717H243.749C270.675 293.717 292.503 271.924 292.503 245.041C292.503 218.157 270.675 196.364 243.749 196.364H48.7542Z" fill="#5926A6"/>
<path d="M292.503 147.682C292.503 120.796 270.677 99 243.754 99C216.831 99 195.006 120.796 195.006 147.682V245.035C195.006 271.921 216.831 293.717 243.754 293.717C270.677 293.717 292.503 271.921 292.503 245.035V147.682Z" fill="#151E33"/>
<path d="M195.006 293.717H341.257C347.659 293.717 353.999 294.976 359.914 297.423C365.83 299.869 371.204 303.455 375.731 307.976C380.259 312.496 383.85 317.863 386.3 323.769C388.75 329.676 390.011 336.006 390.011 342.399C390.011 355.311 384.875 367.693 375.731 376.823C366.588 385.952 354.187 391.081 341.257 391.081H292.503C266.636 391.081 241.829 380.821 223.538 362.557C205.248 344.294 194.972 319.523 194.972 293.695L195.006 293.717Z" fill="#D4E0ED"/>
<path d="M1.03365 390.022H147.285C153.688 390.022 160.027 391.282 165.942 393.728C171.858 396.175 177.232 399.761 181.759 404.281C186.287 408.802 189.878 414.168 192.328 420.075C194.778 425.981 196.039 432.311 196.039 438.705C196.039 451.616 190.903 463.998 181.759 473.128C172.616 482.258 160.215 487.387 147.285 487.387H98.5308C72.664 487.387 47.8567 477.126 29.5661 458.863C11.2756 440.599 1 415.829 1 390L1.03365 390.022Z" fill="#FBC800"/>
<path d="M243.749 293.717H146.251C119.325 293.717 97.4972 315.51 97.4972 342.394C97.4972 369.277 119.325 391.07 146.251 391.07H243.749C270.675 391.07 292.503 369.277 292.503 342.394C292.503 315.51 270.675 293.717 243.749 293.717Z" fill="#151E33"/>
<path d="M341.246 293.941C354.176 293.941 366.577 299.07 375.72 308.2C384.863 317.329 390 329.712 390 342.623V488.423H292.469V342.612C292.471 336.218 293.734 329.887 296.186 323.98C298.638 318.074 302.231 312.707 306.761 308.188C311.29 303.668 316.667 300.084 322.584 297.639C328.501 295.195 334.842 293.938 341.246 293.941Z" fill="#151E33"/>
<path d="M147.274 390.246C160.204 390.246 172.605 395.375 181.748 404.505C190.891 413.635 196.028 426.017 196.028 438.928V584.728H98.4972V438.917C98.4987 432.523 99.7616 426.192 102.214 420.286C104.666 414.379 108.259 409.013 112.789 404.493C117.318 399.973 122.695 396.389 128.612 393.944C134.529 391.5 140.87 390.243 147.274 390.246Z" fill="#E84F47"/>
<path d="M390 537.323C390 510.44 368.174 488.647 341.251 488.647C314.328 488.647 292.503 510.44 292.503 537.323C292.503 564.207 314.328 586 341.251 586C368.174 586 390 564.207 390 537.323Z" fill="#D4E0ED"/>
<path d="M97.4972 342.677C97.4972 315.793 75.6717 294 48.7486 294C21.8255 294 0 315.793 0 342.677C0 369.56 21.8255 391.353 48.7486 391.353C75.6717 391.353 97.4972 369.56 97.4972 342.677Z" fill="#D4E0ED"/>
<path d="M292.503 342.394C292.503 315.51 270.677 293.717 243.754 293.717C216.831 293.717 195.006 315.51 195.006 342.394C195.006 369.277 216.831 391.07 243.754 391.07C270.677 391.07 292.503 369.277 292.503 342.394Z" fill="#FBC800"/>
<path d="M369.597 537.329C369.597 521.694 356.904 509.02 341.246 509.02C325.588 509.02 312.895 521.694 312.895 537.329C312.895 552.964 325.588 565.638 341.246 565.638C356.904 565.638 369.597 552.964 369.597 537.329Z" fill="#5926A6"/>
<path d="M77.0942 342.682C77.0942 327.047 64.4009 314.373 48.743 314.373C33.085 314.373 20.3918 327.047 20.3918 342.682C20.3918 358.317 33.085 370.991 48.743 370.991C64.4009 370.991 77.0942 358.317 77.0942 342.682Z" fill="#5926A6"/>
<path d="M318.287 468.062V439.752C318.287 432.244 321.274 425.044 326.591 419.735C331.908 414.426 339.119 411.443 346.638 411.443C350.361 411.443 354.048 412.175 357.488 413.598C360.927 415.021 364.053 417.106 366.685 419.735C369.318 422.363 371.406 425.484 372.831 428.919C374.256 432.353 374.989 436.035 374.989 439.752C374.989 447.26 372.002 454.461 366.685 459.77C361.368 465.079 354.157 468.062 346.638 468.062H318.287Z" fill="#FBC800"/>
<path d="M21 562.619V534.309C21 526.801 23.987 519.601 29.3039 514.292C34.6208 508.983 41.832 506 49.3512 506C53.0743 506 56.761 506.732 60.2008 508.155C63.6405 509.578 66.7659 511.663 69.3986 514.292C72.0312 516.92 74.1195 520.041 75.5443 523.476C76.9691 526.91 77.7024 530.592 77.7024 534.309C77.7024 541.817 74.7154 549.018 69.3986 554.327C64.0817 559.636 56.8704 562.619 49.3512 562.619H21Z" fill="#5926A6"/>
<path d="M124.315 564.367V536.058C124.315 528.549 127.302 521.349 132.619 516.04C137.936 510.731 145.147 507.748 152.666 507.748C156.389 507.748 160.076 508.48 163.516 509.903C166.955 511.326 170.081 513.411 172.713 516.04C175.346 518.669 177.434 521.789 178.859 525.224C180.284 528.659 181.017 532.34 181.017 536.058C181.017 543.566 178.03 550.766 172.713 556.075C167.396 561.384 160.185 564.367 152.666 564.367H124.315Z" fill="#151E33"/>
<path d="M239.679 152.652V113.552C250.048 113.599 259.979 117.732 267.312 125.052C274.645 132.372 278.787 142.287 278.837 152.641L239.679 152.652Z" fill="#FBC800"/>
<path d="M58.653 252.132H19.4949C19.5451 241.778 23.6871 231.863 31.0201 224.543C38.3532 217.223 48.2841 213.09 58.653 213.043V252.132Z" fill="#D4E0ED"/>
<path d="M154.158 447.089H115C115.05 436.735 119.192 426.82 126.525 419.5C133.858 412.18 143.789 408.047 154.158 408V447.089Z" fill="#FBC800"/>
<path d="M335.966 238.979H375.124C375.08 249.338 370.94 259.26 363.607 266.586C356.274 273.913 346.339 278.052 335.966 278.102V238.979Z" fill="#FBC800"/>
<path d="M144.962 116.35C155.399 116.821 165.006 122.406 171.228 133.555C171.379 133.798 171.51 134.053 171.621 134.317C171.878 134.932 172.506 135.57 171.486 136.108C170.466 136.645 170.287 135.794 169.995 135.201C168.307 131.838 166.029 128.805 163.269 126.246C158.097 121.52 151.456 118.712 144.458 118.293C137.46 117.873 130.53 119.867 124.828 123.94C113.225 132.302 108.842 148.051 114.84 160.88C120.12 172.185 129.144 178.521 141.666 178.935C154.188 179.35 163.37 173.641 169.569 162.906C169.704 162.659 169.827 162.402 169.961 162.145C170.264 161.529 170.6 161.025 171.43 161.506C172.26 161.988 171.867 162.536 171.576 163.107C169.24 167.942 165.657 172.068 161.195 175.062C150.489 182.148 139.144 183.111 127.765 177.178C116.163 171.111 110.288 161.07 110.378 147.973C110.456 130.399 125.187 116.183 144.962 116.35Z" fill="#5926A6"/>
<path d="M168.852 153.693C168.036 157.899 166.215 161.845 163.545 165.197C160.874 168.55 157.433 171.209 153.512 172.948C149.592 174.688 145.309 175.457 141.028 175.19C136.746 174.922 132.593 173.627 128.92 171.413C119.739 165.816 115.232 157.365 116.05 146.675C116.902 135.548 122.878 127.589 133.359 123.66C143.516 119.854 152.832 122.015 160.915 129.257C164.411 132.411 166.925 136.503 168.157 141.044C168.37 141.783 169.334 142.891 167.932 143.361C166.531 143.831 166.654 142.387 166.43 141.649C165.027 136.948 162.274 132.762 158.512 129.609C154.75 126.455 150.144 124.473 145.265 123.906C144.312 123.794 143.337 123.571 143.527 125.115C143.617 125.765 143.393 126.235 142.608 126.235C141.823 126.235 141.487 125.82 141.621 125.115C141.778 123.828 141.05 123.794 140.074 123.862C129.01 124.656 118.775 134.787 117.911 145.846C117.833 146.775 117.586 147.604 119.032 147.805C119.84 147.906 119.94 149.249 119.156 149.339C116.992 149.607 117.844 151.051 117.956 152.014C118.691 157.13 121.007 161.89 124.58 165.63C128.153 169.371 132.805 171.905 137.888 172.879C138.516 172.991 139.144 173.126 139.783 173.193C140.725 173.294 141.879 173.708 141.734 171.984C141.734 171.391 142.07 171.111 142.686 171.122C143.303 171.133 143.673 171.424 143.606 172.018C143.438 173.54 144.357 173.327 145.343 173.226C150.224 172.703 154.838 170.74 158.598 167.588C162.357 164.436 165.092 160.238 166.453 155.529C166.867 154.063 167.394 153.29 168.941 153.682L168.852 153.693Z" fill="#5926A6"/>
<path d="M141.644 136.611C141.644 134.272 141.644 131.921 141.644 129.582C141.644 128.876 141.7 128.306 142.619 128.306C143.538 128.306 143.572 128.888 143.572 129.593C143.572 134.07 143.572 138.548 143.572 143.025C143.572 144.022 144.121 144.525 144.693 145.264C147.429 149.137 151.419 147.111 154.783 147.682C155.724 147.839 157.484 146.753 157.462 148.589C157.439 150.425 155.713 149.328 154.783 149.44C153.222 149.524 151.657 149.524 150.097 149.44C148.314 149.44 146.666 149.137 145.399 151.287C144.278 153.245 141.173 152.887 139.648 151.096C139.294 150.7 139.027 150.234 138.864 149.728C138.702 149.223 138.648 148.688 138.707 148.16C138.765 147.633 138.934 147.123 139.202 146.664C139.471 146.206 139.833 145.809 140.265 145.499C140.782 145.221 141.2 144.79 141.461 144.265C141.722 143.739 141.813 143.146 141.722 142.567C141.633 140.574 141.722 138.582 141.722 136.589L141.644 136.611ZM142.765 150.716C143.045 150.708 143.321 150.642 143.576 150.524C143.83 150.405 144.057 150.235 144.243 150.026C144.429 149.816 144.57 149.57 144.657 149.304C144.744 149.037 144.775 148.756 144.749 148.477C144.746 148.192 144.682 147.911 144.56 147.653C144.439 147.395 144.263 147.166 144.045 146.983C143.827 146.799 143.571 146.664 143.296 146.588C143.021 146.511 142.733 146.495 142.451 146.54C142.183 146.537 141.918 146.591 141.673 146.698C141.427 146.804 141.207 146.962 141.027 147.159C140.847 147.357 140.711 147.591 140.628 147.845C140.545 148.099 140.517 148.368 140.545 148.634C140.545 148.918 140.603 149.199 140.715 149.46C140.827 149.721 140.992 149.956 141.199 150.151C141.406 150.346 141.65 150.497 141.918 150.594C142.185 150.691 142.47 150.732 142.754 150.716H142.765Z" fill="#5926A6"/>
<path d="M168.885 153.716C169.648 153.111 168.885 152.775 168.594 152.451C167.464 151.26 166.023 150.407 164.435 149.988C163.897 149.843 163.549 149.585 163.527 148.992C163.504 148.398 163.863 148.141 164.401 147.984C165.92 147.579 167.315 146.803 168.459 145.726C169.604 144.65 170.463 143.306 170.959 141.817C171.139 141.346 171.296 140.876 171.912 140.831C172.529 140.787 172.899 141.268 173.123 141.817C173.67 143.245 174.525 144.536 175.627 145.598C176.73 146.66 178.052 147.467 179.502 147.962C179.995 148.13 180.398 148.32 180.421 148.958C180.443 149.596 179.883 149.809 179.3 149.999C177.876 150.457 176.575 151.234 175.497 152.27C174.418 153.305 173.591 154.573 173.078 155.977C172.876 156.492 172.82 157.096 172.058 157.174C171.296 157.253 171.15 156.48 170.802 155.977C170.231 155.148 170.444 153.615 168.818 153.738L168.885 153.716ZM176.946 148.857C174.969 147.704 173.28 146.12 172.002 144.223C170.801 146.136 169.203 147.77 167.316 149.014C169.184 150.268 170.794 151.867 172.058 153.727C173.273 151.736 174.949 150.066 176.946 148.857Z" fill="#5926A6"/>
<path d="M183.268 128.641C183.268 129.369 182.831 129.615 182.248 129.761C181.265 130.075 180.367 130.611 179.624 131.327C178.882 132.043 178.314 132.921 177.966 133.891C177.73 134.451 177.573 134.955 176.845 134.955C176.116 134.955 176.038 134.272 175.813 133.835C175.458 132.872 174.886 132.003 174.142 131.294C173.398 130.586 172.501 130.058 171.52 129.75C171.015 129.604 170.578 129.481 170.567 128.82C170.556 128.16 170.959 127.891 171.576 127.701C172.532 127.416 173.411 126.919 174.147 126.246C174.883 125.573 175.456 124.743 175.825 123.817C176.071 123.257 176.15 122.518 177.024 122.552C177.73 122.552 177.876 123.179 178.145 123.671C178.96 125.51 180.472 126.951 182.349 127.679C182.73 127.88 183.223 128.014 183.268 128.641ZM179.804 128.641C179.176 128.07 178.683 127.522 178.044 127.041C177.405 126.559 177.08 125.138 176.464 126.503C176.015 127.511 173.1 127.511 175.152 129.727C176.542 131.205 177.394 131.686 178.616 129.727C178.967 129.328 179.366 128.975 179.804 128.675V128.641Z" fill="#5926A6"/>
<path d="M188.896 139.858C188.896 140.384 188.492 140.563 188.089 140.697C187.322 140.961 186.622 141.391 186.041 141.956C185.459 142.521 185.01 143.207 184.726 143.966C184.154 145.264 183.313 145.085 182.809 143.966C182.543 143.203 182.099 142.514 181.515 141.955C180.93 141.397 180.221 140.985 179.446 140.753C179.233 140.728 179.039 140.622 178.904 140.457C178.768 140.292 178.701 140.082 178.717 139.869C178.717 139.343 178.829 138.928 179.468 138.749C180.248 138.528 180.963 138.12 181.549 137.56C182.135 137 182.575 136.305 182.831 135.537C183.313 134.473 184.199 134.417 184.703 135.458C185.037 136.236 185.53 136.937 186.149 137.515C186.769 138.093 187.502 138.536 188.302 138.817C188.507 138.894 188.678 139.04 188.786 139.23C188.895 139.42 188.934 139.642 188.896 139.858ZM183.75 137.966C183.055 138.492 182.147 139.018 182.125 139.768C182.165 140.179 182.341 140.565 182.625 140.865C182.909 141.165 183.286 141.362 183.694 141.425C184.139 141.369 184.551 141.167 184.868 140.85C185.185 140.534 185.387 140.122 185.443 139.678C185.443 138.94 184.513 138.402 183.75 137.966Z" fill="#5926A6"/>
<path d="M178.863 365.112H155.007C155.639 363.725 156.389 362.396 157.249 361.138C157.473 360.757 157.933 360.925 158.28 360.914C159.682 360.914 161.083 360.914 162.473 360.914C163.269 360.914 163.594 360.802 163.291 359.906C162.17 356.436 161.049 352.955 159.771 349.261C158.854 350.849 157.575 352.198 156.038 353.201C155.545 353.492 155.691 354.019 155.657 354.466C155.354 357.657 155.052 360.847 154.805 364.048C154.738 364.933 154.435 365.168 153.538 365.168C147.858 365.123 142.178 365.123 136.498 365.168C135.635 365.168 135.265 364.966 135.198 364.048C134.974 360.903 134.615 357.757 134.391 354.612C134.389 354.227 134.29 353.85 134.104 353.513C133.918 353.177 133.651 352.893 133.326 352.686C131.838 351.648 130.701 350.184 130.065 348.488C129.428 346.791 129.322 344.941 129.761 343.183C129.918 342.545 130.31 342.702 130.703 342.69C132.463 342.69 133.46 341.47 134.413 340.216C134.999 339.279 135.444 338.26 135.736 337.194C136.01 336.476 136.455 335.835 137.033 335.327C137.611 334.819 138.304 334.459 139.052 334.278C139.801 334.097 140.582 334.101 141.328 334.289C142.075 334.478 142.764 334.844 143.337 335.358C143.541 335.619 143.834 335.797 144.161 335.856C144.487 335.916 144.824 335.855 145.108 335.683C146.035 335.283 147.066 335.193 148.048 335.427C149.031 335.661 149.91 336.207 150.556 336.981C150.904 337.373 151.15 337.687 151.801 337.642C152.682 337.472 153.596 337.654 154.346 338.147C155.095 338.641 155.622 339.407 155.814 340.284C155.971 340.698 155.926 341.336 156.621 341.134C157.316 340.933 156.856 340.362 156.744 340.015C154.771 333.881 152.753 327.702 150.758 321.612C150.141 319.676 150.96 318.4 153 318.131C153.581 318.023 154.181 318.147 154.671 318.479C155.16 318.81 155.498 319.321 155.612 319.9L159.547 331.944C162.581 341.258 165.612 350.586 168.639 359.929C168.704 360.265 168.9 360.562 169.183 360.755C169.466 360.948 169.815 361.021 170.152 360.959C171.923 360.959 173.695 360.959 175.455 360.959C175.775 360.911 176.101 360.97 176.385 361.126C176.668 361.281 176.893 361.525 177.024 361.821C177.484 362.817 178.134 363.836 178.863 365.112ZM145.119 345.422C142.003 345.422 138.886 345.422 135.77 345.422C134.996 345.422 134.649 345.59 134.806 346.429C135.019 348.186 135.187 349.944 135.276 351.701C135.264 352.044 135.368 352.381 135.572 352.657C135.775 352.934 136.066 353.133 136.397 353.224C139.095 354.387 142.002 354.987 144.94 354.987C147.878 354.987 150.785 354.387 153.482 353.224C153.832 353.119 154.138 352.902 154.352 352.607C154.567 352.311 154.679 351.954 154.67 351.589C154.749 350.056 154.85 348.522 155.074 347.011C155.253 345.791 154.996 345.321 153.628 345.377C150.792 345.511 147.978 345.433 145.119 345.422ZM144.873 363.936C147.384 363.936 149.895 363.936 152.406 363.936C153.179 363.936 153.583 363.813 153.639 362.906C153.796 360.354 154.043 357.813 154.312 355.272C154.413 354.354 154.211 354.231 153.359 354.567C147.986 356.727 141.984 356.727 136.61 354.567C135.59 354.175 135.489 354.489 135.624 355.362C135.882 357.858 136.117 360.354 136.285 362.862C136.285 363.724 136.655 363.981 137.462 363.925C139.929 363.903 142.373 363.936 144.873 363.936ZM166.172 360.88C167.574 361.194 167.585 360.578 167.204 359.47C166.161 356.448 165.208 353.38 164.211 350.336C160.982 340.448 157.75 330.564 154.513 320.683C154.222 319.776 153.897 319.015 152.653 319.474C151.408 319.933 151.677 320.594 151.969 321.478C156.139 334.164 160.298 346.877 164.446 359.615C164.715 360.522 165.04 361.16 166.15 360.936L166.172 360.88ZM147.731 341.202C149.502 341.202 151.274 341.202 153.034 341.202C153.561 341.202 154.379 341.515 154.547 340.933C154.715 340.351 154.166 339.634 153.594 339.198C153.262 338.932 152.849 338.787 152.423 338.787C151.997 338.787 151.584 338.932 151.251 339.198C150.702 339.567 150.534 339.399 150.242 338.862C148.65 335.918 145.512 335.761 143.707 338.504C143.426 338.929 143.236 339.366 142.664 339.008C142.092 338.649 142.384 338.246 142.664 337.888C143.449 336.914 142.855 336.399 142.07 335.918C141.266 335.432 140.304 335.277 139.388 335.486C138.472 335.695 137.673 336.251 137.16 337.037C136.857 337.508 136.554 337.944 137.53 337.978C138.237 337.998 138.92 338.24 139.482 338.67C140.043 339.1 140.455 339.696 140.657 340.373C140.728 340.636 140.893 340.863 141.12 341.014C141.347 341.164 141.621 341.227 141.891 341.19C143.796 341.179 145.736 341.202 147.709 341.202H147.731ZM145.736 344.146C149.413 344.146 153.079 344.146 156.756 344.146C157.17 344.146 157.877 344.47 157.877 343.675C157.877 342.881 157.641 342.321 156.565 342.321C149.267 342.377 141.991 342.321 134.671 342.321C134.043 342.321 133.359 342.321 133.315 343.149C133.27 343.978 133.998 344.09 134.682 344.09L145.736 344.146ZM176.654 363.891C176.284 362.615 175.757 362.011 174.412 362.033C169.39 362.123 164.323 362.033 159.345 362.033C159.025 361.988 158.701 361.988 158.381 362.033C158.073 362.143 157.805 362.345 157.615 362.611C157.424 362.877 157.32 363.195 157.316 363.522C157.316 364.104 158.067 363.813 158.437 363.813C162.72 363.813 166.991 363.813 171.273 363.813L176.654 363.891ZM134.054 351.578C133.875 349.586 133.774 347.672 133.494 345.78C133.359 344.907 132.44 344.459 131.779 343.933C131.577 343.776 131.106 343.787 130.949 344.336C130.629 345.721 130.757 347.171 131.315 348.479C131.873 349.786 132.832 350.883 134.054 351.612V351.578ZM155.87 351.511C157.596 351.153 157.585 348.791 159.446 348.791C159.475 348.666 159.475 348.536 159.446 348.41C159.198 347.518 158.903 346.64 158.56 345.78C158.269 345.119 157.574 345.455 157.047 345.399C156.711 345.399 156.408 345.399 156.374 345.869C156.24 347.772 156.049 349.642 155.825 351.545L155.87 351.511ZM137.518 341.168C137.701 341.185 137.885 341.185 138.068 341.168C138.539 341.067 139.29 341.481 139.435 340.933C139.581 340.384 138.976 339.813 138.483 339.522C138.284 339.363 138.049 339.255 137.799 339.208C137.549 339.162 137.29 339.177 137.048 339.254C136.252 339.522 135.478 340.082 135.557 340.843C135.635 341.605 136.566 341.056 137.104 341.179C137.241 341.198 137.38 341.205 137.518 341.202V341.168Z" fill="#D4E0ED"/>
<path d="M147.272 331.384C147.269 331.841 147.132 332.286 146.876 332.664C146.621 333.042 146.258 333.335 145.836 333.508C145.413 333.68 144.948 333.724 144.501 333.633C144.053 333.542 143.643 333.32 143.321 332.996C143 332.672 142.782 332.26 142.695 331.812C142.608 331.364 142.656 330.901 142.833 330.481C143.01 330.06 143.308 329.701 143.689 329.45C144.07 329.198 144.517 329.065 144.973 329.067C145.277 329.069 145.577 329.13 145.856 329.247C146.136 329.364 146.39 329.535 146.603 329.751C146.817 329.966 146.985 330.221 147.1 330.501C147.215 330.782 147.273 331.082 147.272 331.384ZM146.038 331.228C146.027 331.093 145.989 330.962 145.926 330.843C145.863 330.723 145.777 330.617 145.673 330.532C145.568 330.446 145.447 330.382 145.318 330.344C145.188 330.306 145.052 330.294 144.917 330.31C144.323 330.31 143.796 330.646 143.864 331.34C143.843 331.491 143.858 331.646 143.907 331.791C143.957 331.936 144.039 332.068 144.147 332.176C144.255 332.284 144.387 332.366 144.533 332.415C144.678 332.464 144.833 332.479 144.985 332.459C145.646 332.381 146.027 331.989 146.038 331.228Z" fill="#D4E0ED"/>
<path d="M171.766 354.791C171.312 354.78 170.871 354.634 170.5 354.373C170.128 354.112 169.843 353.746 169.679 353.323C169.515 352.899 169.481 352.437 169.581 351.994C169.68 351.551 169.909 351.148 170.238 350.835C170.567 350.522 170.982 350.314 171.43 350.236C171.877 350.158 172.338 350.215 172.754 350.399C173.169 350.582 173.521 350.885 173.764 351.268C174.008 351.652 174.132 352.098 174.121 352.552C174.103 353.16 173.846 353.736 173.405 354.155C172.964 354.574 172.375 354.803 171.766 354.791ZM172.887 352.552C172.809 351.802 172.417 351.433 171.766 351.433C171.614 351.423 171.461 351.448 171.32 351.507C171.179 351.565 171.054 351.655 170.953 351.77C170.852 351.885 170.779 352.021 170.739 352.168C170.7 352.315 170.694 352.47 170.724 352.619C170.73 352.756 170.765 352.89 170.826 353.012C170.888 353.135 170.974 353.243 171.079 353.331C171.185 353.418 171.307 353.483 171.439 353.52C171.571 353.558 171.709 353.567 171.845 353.548C171.983 353.554 172.12 353.533 172.249 353.484C172.378 353.436 172.496 353.361 172.595 353.266C172.695 353.171 172.774 353.057 172.828 352.93C172.882 352.804 172.91 352.667 172.91 352.53L172.887 352.552Z" fill="#D4E0ED"/>
<path d="M138.897 326.235C139.198 326.235 139.495 326.295 139.771 326.412C140.048 326.529 140.298 326.7 140.507 326.915C140.716 327.13 140.88 327.384 140.988 327.664C141.097 327.943 141.148 328.242 141.139 328.541C141.099 329.124 140.838 329.669 140.411 330.067C139.983 330.465 139.42 330.687 138.836 330.687C138.251 330.687 137.688 330.465 137.261 330.067C136.833 329.669 136.573 329.124 136.532 328.541C136.522 328.231 136.577 327.922 136.693 327.634C136.809 327.346 136.984 327.086 137.207 326.869C137.429 326.652 137.694 326.484 137.985 326.375C138.276 326.266 138.587 326.218 138.897 326.235ZM139.951 328.474C139.959 328.329 139.935 328.184 139.88 328.049C139.825 327.914 139.741 327.793 139.634 327.695C139.527 327.597 139.399 327.523 139.26 327.48C139.121 327.436 138.974 327.424 138.83 327.444C138.691 327.434 138.551 327.454 138.42 327.503C138.289 327.552 138.17 327.628 138.071 327.727C137.972 327.826 137.895 327.945 137.846 328.075C137.798 328.206 137.778 328.346 137.788 328.485C137.767 328.637 137.782 328.791 137.831 328.937C137.881 329.082 137.963 329.213 138.071 329.322C138.179 329.43 138.311 329.512 138.457 329.561C138.602 329.61 138.757 329.625 138.909 329.605C139.055 329.611 139.201 329.585 139.336 329.529C139.471 329.473 139.593 329.388 139.692 329.28C139.791 329.173 139.866 329.045 139.911 328.906C139.955 328.767 139.969 328.619 139.951 328.474Z" fill="#D4E0ED"/>
<path d="M338.69 373.25C338.51 372.667 338.948 372.22 338.69 371.66C335.351 373.212 331.665 373.868 327.995 373.563C327.76 373.026 328.5 372.88 328.365 372.253C326.06 372.6 323.72 372.646 321.403 372.388C321 372.332 320.282 372.623 320.282 371.94C320.282 371.257 320.764 371.134 321.269 370.944C322.39 370.507 323.612 370.093 324.722 369.556C327.816 368.056 329.744 365.727 329.755 362.134C329.755 359.28 330.674 356.929 333.443 355.619C334.228 355.25 333.78 354.5 333.881 353.884C333.981 353.268 333.589 352.586 334.665 352.485C335.248 352.485 334.923 351.757 334.923 351.366C334.923 340.604 334.923 329.847 334.923 319.094C334.923 317.034 335.607 316.015 336.986 316.038C338.365 316.06 339.026 317.068 339.026 319.161C339.026 329.87 339.026 340.586 339.026 351.31C339.026 351.836 338.723 352.496 339.744 352.597C340.349 352.664 340.08 353.403 340.035 353.806C339.934 354.869 340.158 355.642 341.324 355.877C341.361 355.868 341.399 355.868 341.436 355.877C342.356 356.817 343.241 357.209 344.273 355.955C344.609 355.541 345.293 355.563 345.864 355.574H349.34C351.212 355.574 350.954 355.787 350.842 353.884C350.707 351.489 350.483 349.104 350.36 346.709C350.248 344.47 351.559 343.004 353.521 343.004C355.483 343.004 356.806 344.593 356.683 346.843C356.537 349.407 356.414 351.97 356.223 354.533C356.156 355.317 356.313 355.653 357.153 355.586C358.476 355.53 359.81 355.586 361.144 355.586C361.927 355.52 362.704 355.768 363.305 356.273C363.906 356.779 364.282 357.502 364.351 358.283C365.023 362.212 365.662 366.119 366.357 370.059C366.548 371.078 366.29 371.347 365.236 371.347C357.983 371.347 350.73 371.347 343.477 371.347C343.013 371.291 342.543 371.34 342.101 371.489C341.659 371.638 341.256 371.884 340.921 372.209C340.341 372.832 339.541 373.206 338.69 373.25ZM340.214 371.1C340.551 370.944 340.696 370.921 340.753 370.832C342.67 367.709 344.116 364.418 343.387 360.656C343.238 359.431 342.62 358.31 341.664 357.528C340.707 356.746 339.485 356.363 338.253 356.459C337.311 356.459 336.369 356.459 335.428 356.459C334.631 356.415 333.839 356.61 333.153 357.019C332.468 357.428 331.921 358.032 331.582 358.753C331.003 359.859 330.735 361.101 330.809 362.347C330.809 366.007 328.869 368.515 325.787 370.272C325.11 370.522 324.489 370.903 323.959 371.391C326.552 371.396 329.137 371.1 331.661 370.507L330.192 372.421C333.981 372.589 337.165 371.235 340.371 369.511L340.214 371.1ZM353.499 356.75C351.873 356.75 350.237 356.75 348.611 356.75C347.927 356.75 347.591 356.884 347.613 357.656C347.613 359.448 347.613 361.25 347.613 363.041C347.613 363.69 347.793 363.936 348.488 363.936C351.851 363.936 355.158 363.936 358.499 363.936C359.205 363.936 359.384 363.679 359.373 363.03C359.373 361.239 359.373 359.447 359.373 357.645C359.373 356.873 359.082 356.727 358.387 356.75C356.75 356.739 355.124 356.705 353.499 356.705V356.75ZM353.129 370.216C355.494 370.216 357.848 370.216 360.214 370.216C361.01 370.216 361.335 370.07 361.021 369.22C360.683 368.204 360.406 367.168 360.191 366.119C360.176 365.943 360.124 365.772 360.037 365.618C359.951 365.463 359.833 365.329 359.692 365.223C359.55 365.118 359.387 365.043 359.214 365.004C359.042 364.966 358.863 364.964 358.689 365C356.324 365.056 353.97 365 351.604 365C350.158 365 348.376 364.418 347.344 365.268C346.313 366.119 346.077 367.798 345.483 369.119C345.49 369.16 345.49 369.201 345.483 369.242C345.069 369.959 345.27 370.205 346.1 370.194C348.376 370.194 350.741 370.216 353.129 370.216ZM335.977 335.045C335.977 340.53 335.977 346.015 335.977 351.489C335.977 352.384 336.28 352.53 337.098 352.541C337.916 352.552 337.894 351.992 337.894 351.422V318.691C337.904 318.436 337.885 318.18 337.838 317.929C337.813 317.711 337.709 317.509 337.544 317.362C337.38 317.215 337.167 317.134 336.947 317.134C336.726 317.134 336.513 317.215 336.349 317.362C336.184 317.509 336.08 317.711 336.055 317.929C336.034 318.302 336.034 318.676 336.055 319.049C335.977 324.433 335.988 329.739 335.977 335.045ZM360.46 360.936C359.81 363.399 361.582 365.862 361.94 368.559C362.153 370.059 362.927 370.384 364.272 370.25C364.933 370.182 365.18 370.059 365.057 369.365C364.418 365.705 363.824 362.033 363.196 358.373C363.132 357.921 362.91 357.507 362.57 357.204C362.229 356.9 361.791 356.728 361.335 356.716C360.696 356.638 360.404 356.851 360.438 357.556C360.494 358.53 360.46 359.515 360.46 360.936ZM355.505 347.705C355.505 347.448 355.505 347.201 355.505 346.944C355.562 345.153 354.81 344.19 353.409 344.213C352.008 344.235 351.313 345.242 351.425 347.034C351.567 349.272 351.724 351.489 351.896 353.683C352.064 355.921 351.728 355.518 354.003 355.619C354.799 355.619 355.023 355.395 355.046 354.612C355.169 352.317 355.371 350.011 355.505 347.705ZM346.537 360.947C346.537 359.537 346.537 358.518 346.537 357.489C346.537 357.153 346.604 356.75 346.1 356.716C345.781 356.668 345.456 356.698 345.151 356.804C344.847 356.909 344.572 357.086 344.351 357.321C344.129 357.52 343.978 357.787 343.923 358.081C343.869 358.374 343.913 358.678 344.048 358.944C344.767 360.608 344.958 362.451 344.598 364.227C344.236 365.983 343.683 367.695 342.95 369.332C342.838 369.6 342.4 369.97 342.95 370.171C343.499 370.373 343.824 370.328 344.071 369.779C345.013 366.757 347.232 364.071 346.492 360.936L346.537 360.947ZM336.851 355.351C337.232 355.351 337.614 355.351 337.972 355.351C338.567 355.351 338.914 355.295 338.925 354.556C338.936 353.817 338.589 353.638 337.928 353.671C337.207 353.711 336.485 353.711 335.764 353.671C335.17 353.671 334.946 353.839 334.946 354.466C334.946 355.093 335.125 355.429 335.809 355.351C336.141 355.325 336.474 355.322 336.806 355.339L336.851 355.351ZM340.214 371.123C340.214 371.123 340.214 371.19 340.214 371.212C340.214 371.235 340.327 371.324 340.371 371.212C340.378 371.2 340.382 371.187 340.382 371.173C340.382 371.159 340.378 371.146 340.371 371.134L340.214 371.123Z" fill="#D4E0ED"/>
<path d="M195.006 196.387H243.76C256.69 196.387 269.091 201.516 278.234 210.645C287.377 219.775 292.514 232.157 292.514 245.069C292.514 257.98 287.377 270.362 278.234 279.492C269.091 288.622 256.69 293.751 243.76 293.751C230.829 293.751 218.429 288.622 209.285 279.492C200.142 270.362 195.006 257.98 195.006 245.069V196.387Z" fill="#E84F47"/>
<path d="M244 537H267.5C273.733 537 279.71 539.529 284.117 544.029C288.524 548.53 291 554.635 291 561C291 567.365 288.524 573.47 284.117 577.971C279.71 582.471 273.733 585 267.5 585C261.267 585 255.29 582.471 250.883 577.971C246.476 573.47 244 567.365 244 561V537Z" fill="#151E33"/>
<path d="M244 537L220 537C213.635 537 207.53 534.524 203.029 530.117C198.529 525.71 196 519.733 196 513.5C196 507.267 198.529 501.29 203.029 496.883C207.53 492.476 213.635 490 220 490C226.365 490 232.47 492.476 236.971 496.883C241.471 501.29 244 507.267 244 513.5L244 537Z" fill="#D4E0ED"/>
<path d="M292.492 488.423H243.737C230.807 488.423 218.406 483.294 209.263 474.164C200.12 465.035 194.983 452.652 194.983 439.741C194.983 426.83 200.12 414.447 209.263 405.318C218.406 396.188 230.807 391.059 243.737 391.059C256.668 391.059 269.069 396.188 278.212 405.318C287.355 414.447 292.492 426.83 292.492 439.741V488.423Z" fill="#5926A6"/>
<path d="M239.668 227.729C239.309 228.435 239.365 228.994 238.738 229.397C238.368 229.644 238.401 230.741 238.973 231.345C240.699 233.147 241.069 235.095 239.646 237.267C239.394 237.691 239.296 238.189 239.365 238.677C239.444 239.606 239.702 240.121 240.879 240.099C245.845 240.02 250.822 240.099 255.8 240.099C256.167 240.054 256.54 240.113 256.874 240.271C257.209 240.428 257.493 240.677 257.692 240.988C257.891 241.299 257.998 241.661 258.001 242.03C258.003 242.4 257.901 242.762 257.706 243.076C257.594 243.32 257.421 243.53 257.202 243.685C256.984 243.84 256.728 243.935 256.461 243.96C255.34 243.893 255.34 244.643 255.262 245.337C254.238 250.957 253.221 256.576 252.212 262.195C252.144 263.152 251.698 264.042 250.973 264.672C250.248 265.301 249.303 265.618 248.345 265.553C242.665 265.553 236.977 265.553 231.283 265.553C230.345 265.59 229.429 265.26 228.732 264.633C228.035 264.005 227.61 263.131 227.55 262.195C226.496 256.475 225.442 250.744 224.433 245.013C224.31 244.319 224.085 244.084 223.402 243.994C223.166 243.97 222.937 243.9 222.729 243.787C222.521 243.674 222.338 243.521 222.189 243.337C222.041 243.152 221.931 242.94 221.866 242.713C221.801 242.486 221.782 242.248 221.81 242.013C221.8 241.535 221.978 241.073 222.304 240.724C222.631 240.375 223.081 240.167 223.559 240.143C224.455 240.076 225.363 240.143 226.272 240.143C226.381 240.161 226.493 240.156 226.601 240.13C226.709 240.104 226.811 240.057 226.901 239.992C226.991 239.926 227.066 239.843 227.124 239.748C227.181 239.653 227.219 239.548 227.236 239.438C228.13 236.593 229.664 233.989 231.72 231.826C232.128 231.434 232.372 230.902 232.404 230.338C232.462 230.037 232.407 229.727 232.25 229.464C232.092 229.202 231.844 229.007 231.552 228.916C230.916 228.626 230.398 228.129 230.082 227.507C229.767 226.885 229.672 226.174 229.814 225.491C229.945 224.797 230.308 224.167 230.844 223.706C231.379 223.244 232.056 222.978 232.762 222.95C236.675 222.894 240.61 222.95 244.511 222.95C244.993 222.95 245.217 223.14 245.184 223.61V223.722C245.385 226.621 245.385 226.621 242.493 226.644H241.697C241.305 226.644 240.767 226.565 240.655 227.058C240.629 227.282 240.672 227.51 240.778 227.709C240.884 227.909 241.048 228.072 241.249 228.177C241.473 228.311 241.708 228.423 241.933 228.569C242.157 228.714 242.347 228.871 242.134 229.207C241.921 229.543 241.742 229.621 241.406 229.408C240.755 228.961 240.004 228.737 239.668 227.729ZM241.45 246.658L240.329 247.778C239.354 248.74 238.323 248.897 237.572 248.113C236.821 247.33 236.955 246.401 237.942 245.36C238.343 245.057 238.678 244.676 238.928 244.24C238.794 244.162 238.738 244.095 238.67 244.095C234.455 244.095 230.24 244.095 226.025 244.095C225.352 244.095 225.307 244.33 225.42 244.901C226.473 250.666 227.493 256.43 228.547 262.195C228.579 262.554 228.683 262.903 228.853 263.22C229.022 263.538 229.254 263.819 229.534 264.045C229.814 264.272 230.137 264.44 230.484 264.539C230.831 264.639 231.194 264.668 231.552 264.624H248.266C248.625 264.663 248.988 264.629 249.333 264.526C249.678 264.422 250 264.25 250.278 264.021C250.555 263.791 250.785 263.509 250.951 263.189C251.118 262.87 251.219 262.521 251.248 262.162C252.28 256.505 253.304 250.852 254.32 245.203C254.399 244.778 254.802 244.028 253.816 244.084C253.154 244.151 252.044 243.479 252.089 245.035C252.156 246.949 252.089 248.863 252.089 250.778C252.089 252.222 251.618 252.725 250.183 252.848C249.948 252.848 249.746 252.848 249.645 253.095C249.592 253.331 249.49 253.553 249.345 253.748C249.2 253.942 249.016 254.104 248.805 254.223C248.594 254.343 248.36 254.416 248.119 254.44C247.877 254.463 247.633 254.436 247.403 254.36C247.044 254.281 246.91 254.628 246.675 254.807C246.359 255.112 245.937 255.283 245.497 255.283C245.058 255.283 244.636 255.112 244.32 254.807C244.074 254.595 243.917 254.382 243.491 254.393C241.933 254.393 241.428 253.912 241.417 252.311C241.406 250.71 241.45 248.751 241.45 246.692V246.658ZM251.091 246.345C251.091 244.912 251.091 243.479 251.091 242.058C251.091 241.285 250.912 241.005 250.094 241.028C247.986 241.028 245.879 241.028 243.771 241.028C242.964 241.028 242.291 241.028 242.246 242.08C242.246 242.472 241.876 242.718 241.619 242.987L238.345 246.266C238.02 246.602 237.874 246.972 238.244 247.386C238.614 247.8 238.984 247.654 239.365 247.319C239.746 246.983 240.217 246.468 240.655 246.054C241.092 245.64 241.327 245.147 241.955 245.416C242.583 245.684 242.415 246.3 242.426 246.804C242.426 248.494 242.426 250.162 242.426 251.886C242.426 252.468 242.179 253.352 243.154 253.352C244.13 253.352 243.771 252.501 243.816 251.942C243.782 251.532 243.782 251.12 243.816 250.71C243.973 250.139 243.311 249.087 244.275 249.054C245.24 249.02 244.724 250.095 244.802 250.666C244.853 251.489 244.853 252.316 244.802 253.139C244.802 253.643 244.802 254.259 245.475 254.259C246.148 254.259 246.192 253.733 246.192 253.207C246.192 252.266 246.192 251.326 246.192 250.397C246.192 249.916 245.789 249.054 246.708 249.065C247.627 249.076 247.067 249.871 247.123 250.319C247.162 250.993 247.162 251.67 247.123 252.345C247.123 252.86 247.123 253.408 247.829 253.464C248.535 253.52 248.592 252.882 248.592 252.345V249.636C248.592 249.334 248.592 249.02 249.018 248.998C249.444 248.975 249.578 249.266 249.567 249.647C249.556 250.028 249.567 250.475 249.567 250.889C249.567 251.304 249.657 251.93 250.296 251.93C250.934 251.93 250.991 251.382 250.991 250.867C251.114 249.311 251.114 247.878 251.114 246.378L251.091 246.345ZM233.155 240.076C234.691 240.076 236.238 240.076 237.773 240.076C238.121 240.076 238.637 240.188 238.48 239.55C238.355 238.926 238.355 238.283 238.48 237.658C238.605 237.034 238.852 236.44 239.208 235.912C240.049 234.345 238.861 231.726 237.359 231.636C236.114 231.569 234.87 231.636 233.637 231.636C233.487 231.624 233.335 231.644 233.194 231.696C233.053 231.749 232.924 231.831 232.818 231.938C230.823 234.043 229.275 236.53 228.267 239.248C228.009 240.031 228.267 240.132 228.973 240.121C230.397 240.043 231.798 240.11 233.177 240.11L233.155 240.076ZM237.09 223.845C235.621 223.845 234.152 223.845 232.695 223.845C232.144 223.868 231.624 224.107 231.247 224.508C230.869 224.91 230.665 225.444 230.677 225.994C230.676 226.545 230.888 227.076 231.268 227.476C231.647 227.876 232.166 228.115 232.718 228.144C234.41 228.144 236.081 228.144 237.785 228.144C237.949 228.174 238.119 228.139 238.259 228.048C238.399 227.956 238.498 227.814 238.536 227.651C238.714 227.051 239.075 226.522 239.57 226.139C240.065 225.755 240.668 225.536 241.294 225.513C242.112 225.435 241.843 224.875 241.876 224.394C241.91 223.912 241.663 223.722 241.137 223.733C239.825 223.901 238.468 223.879 237.123 223.879L237.09 223.845ZM232.359 241.061H223.996C223.301 241.061 222.763 241.285 222.763 242.058C222.763 242.83 223.312 243.043 223.985 243.054H224.444C229.377 243.054 234.309 243.054 239.253 243.054C239.605 243.068 239.954 242.992 240.268 242.833C240.582 242.675 240.85 242.438 241.047 242.147C241.26 241.878 241.518 241.599 241.316 241.24C241.114 240.882 240.778 241.05 240.498 241.05L232.359 241.061ZM254.32 241.061C253.76 241.061 253.199 241.061 252.638 241.061C251.887 241.061 252.044 241.599 252.078 242.002C252.112 242.405 251.775 243.054 252.638 243.043C253.76 243.043 254.881 243.043 256.002 243.043C256.135 243.049 256.268 243.026 256.391 242.975C256.514 242.924 256.624 242.847 256.714 242.748C256.804 242.65 256.871 242.533 256.911 242.406C256.95 242.279 256.962 242.145 256.943 242.013C256.947 241.89 256.924 241.768 256.878 241.654C256.831 241.54 256.761 241.437 256.673 241.352C256.584 241.267 256.479 241.201 256.363 241.158C256.248 241.116 256.124 241.098 256.002 241.106C255.475 241.095 254.914 241.162 254.354 241.162L254.32 241.061ZM235.419 229.207C234.971 229.207 234.511 229.207 234.074 229.207C233.637 229.207 233.345 229.33 233.323 229.89C233.3 230.449 233.536 230.685 234.096 230.673C235.004 230.673 235.901 230.673 236.798 230.673C237.381 230.673 237.605 230.517 237.605 229.912C237.605 229.308 237.303 229.162 236.776 229.207C236.249 229.252 235.89 229.207 235.419 229.207ZM242.885 224.561C242.885 225.054 242.717 225.591 243.524 225.591C244.152 225.591 244.186 225.256 244.152 224.808C244.119 224.36 244.298 223.867 243.558 223.856C243.02 223.845 242.818 224.069 242.908 224.561H242.885Z" fill="#151E33"/>
<path d="M248.334 463.259H228.581C227.213 463.259 227.213 463.259 227.213 461.938C227.213 456.834 227.213 451.73 227.213 446.625C227.213 445.83 226.989 445.506 226.204 445.651C225.251 445.819 225.083 445.372 225.083 444.532C225.15 442.842 225.083 442.842 226.776 442.842C235.744 442.842 244.713 442.842 253.681 442.842C254.578 442.842 254.869 442.64 254.802 441.722C254.802 437.088 254.802 432.443 254.802 427.808C254.802 427.002 255.026 426.801 255.8 426.801C260.082 426.801 264.353 426.801 268.636 426.801C269.364 426.801 269.499 427.036 269.499 427.708C269.499 439.282 269.499 450.849 269.499 462.409C269.499 463.125 269.286 463.293 268.591 463.293C261.831 463.259 255.082 463.271 248.334 463.259ZM268.613 450.084C268.613 446.289 268.613 442.484 268.613 438.689C268.613 438.04 268.49 437.76 267.75 437.771C264.039 437.771 260.34 437.771 256.629 437.771C255.912 437.771 255.654 437.939 255.665 438.711C255.665 446.308 255.665 453.905 255.665 461.502C255.665 462.207 255.867 462.386 256.562 462.386C260.262 462.386 263.972 462.386 267.672 462.386C268.512 462.386 268.636 462.106 268.625 461.368C268.591 457.618 268.613 453.845 268.613 450.084ZM262.201 427.696C260.306 427.696 258.401 427.696 256.495 427.696C255.923 427.696 255.665 427.797 255.676 428.446C255.676 431.055 255.676 433.652 255.676 436.282C255.676 436.875 255.901 436.999 256.439 436.999H267.851C268.378 436.999 268.636 436.909 268.636 436.293C268.636 433.696 268.636 431.099 268.636 428.458C268.636 427.808 268.412 427.674 267.817 427.685C265.945 427.696 264.073 427.674 262.201 427.674V427.696ZM234.5 453.588C236.406 453.588 238.312 453.588 240.206 453.588C240.879 453.588 241.036 453.398 241.024 452.748C241.024 450.655 241.024 448.562 241.024 446.457C241.024 445.775 240.789 445.64 240.161 445.64C236.424 445.64 232.688 445.64 228.951 445.64C228.2 445.64 228.076 445.898 228.088 446.558C228.088 448.651 228.088 450.756 228.088 452.849C228.088 453.42 228.233 453.588 228.805 453.588C230.7 453.543 232.605 453.565 234.5 453.565V453.588ZM234.5 462.397C236.439 462.397 238.379 462.397 240.307 462.397C240.845 462.397 241.069 462.285 241.058 461.692C241.058 459.521 241.058 457.36 241.058 455.189C241.058 454.64 240.924 454.45 240.341 454.45C236.507 454.45 232.661 454.45 228.827 454.45C228.245 454.45 228.121 454.662 228.132 455.2C228.132 457.304 228.132 459.397 228.132 461.502C228.132 462.185 228.289 462.42 229.007 462.397C230.801 462.33 232.628 462.375 234.466 462.375L234.5 462.397ZM248.334 450.151C246.462 450.151 244.601 450.151 242.728 450.151C242.145 450.151 241.91 450.252 241.921 450.901C241.921 454.506 241.921 458.106 241.921 461.703C241.921 462.185 242 462.42 242.56 462.42C246.439 462.42 250.314 462.42 254.185 462.42C254.724 462.42 254.858 462.229 254.858 461.715C254.858 458.125 254.858 454.524 254.858 450.913C254.858 450.286 254.645 450.14 254.051 450.151C252.112 450.151 250.206 450.129 248.3 450.129L248.334 450.151ZM248.334 449.278C250.206 449.278 252.078 449.278 253.939 449.278C254.6 449.278 254.937 449.166 254.858 448.416C254.796 447.783 254.796 447.146 254.858 446.513C254.914 445.864 254.69 445.64 254.029 445.651C250.228 445.651 246.428 445.651 242.616 445.651C242.112 445.651 241.888 445.786 241.921 446.334C241.977 447.031 241.977 447.731 241.921 448.427C241.843 449.177 242.168 449.312 242.829 449.301C244.634 449.222 246.473 449.256 248.3 449.256L248.334 449.278ZM240.419 444.801H254.04C254.309 444.801 254.69 444.98 254.802 444.566C254.848 444.459 254.871 444.345 254.871 444.23C254.871 444.114 254.848 444 254.802 443.894C254.578 443.614 254.185 443.737 253.86 443.737H226.529C225.857 443.737 225.946 444.163 226.025 444.532C226.103 444.901 226.574 444.801 226.854 444.801H240.419Z" fill="#151E33"/>
<path d="M251.63 434.435C250.363 433.316 249.186 432.196 247.964 431.077C247.755 430.916 247.589 430.706 247.479 430.466C247.37 430.226 247.321 429.963 247.336 429.7C247.392 428.502 247.336 427.305 247.336 426.107C247.336 425.749 247.336 425.413 247.829 425.424C248.322 425.435 248.199 425.805 248.199 426.085C248.199 427.204 248.199 428.323 248.199 429.443C248.184 429.673 248.225 429.903 248.319 430.113C248.413 430.324 248.556 430.509 248.737 430.652C250.105 431.872 251.45 433.125 252.795 434.368C253.227 435.349 253.367 436.433 253.199 437.491C253.064 437.693 252.84 437.625 252.65 437.625H242.033C241.742 437.625 241.406 437.704 241.394 437.222C241.383 436.741 241.776 436.775 242.101 436.775C245.24 436.775 248.379 436.775 251.517 436.775C251.831 436.775 252.302 436.999 252.381 436.405C252.459 435.812 252.381 435.532 251.674 435.543C249.309 435.543 246.932 435.543 244.567 435.543H243.962C243.636 435.543 243.356 435.543 243.345 435.084C243.334 434.625 243.67 434.67 243.973 434.67H250.486C250.883 434.732 251.289 434.648 251.63 434.435Z" fill="#151E33"/>
<path d="M242.785 435.096C242.785 435.342 242.583 435.454 242.302 435.543C241.594 435.75 240.945 436.121 240.409 436.627C239.873 437.133 239.466 437.759 239.22 438.454C239.13 438.7 239.107 438.98 238.726 438.991C238.345 439.002 238.312 438.711 238.211 438.476C237.969 437.763 237.553 437.12 237.001 436.607C236.45 436.093 235.779 435.724 235.049 435.532C234.933 435.516 234.827 435.458 234.751 435.369C234.675 435.281 234.633 435.168 234.635 435.051C234.635 434.737 234.803 434.648 235.038 434.581C235.783 434.381 236.466 433.999 237.026 433.469C237.586 432.94 238.004 432.279 238.244 431.547C238.468 430.987 238.917 430.864 239.152 431.424C239.443 432.173 239.895 432.848 240.476 433.404C241.057 433.959 241.754 434.38 242.515 434.637C242.695 434.693 242.773 434.816 242.785 435.096ZM238.782 432.577C238.222 433.597 237.392 434.445 236.383 435.028C237.346 435.578 238.168 436.345 238.782 437.267C239.356 436.304 240.166 435.503 241.137 434.939C240.179 434.344 239.373 433.536 238.782 432.577Z" fill="#151E33"/>
<path d="M235.016 432.577C235.016 432.868 234.848 432.969 234.601 433.036C234.119 433.18 233.678 433.434 233.312 433.778C232.946 434.121 232.666 434.546 232.493 435.017C232.392 435.252 232.336 435.543 231.978 435.521C231.619 435.499 231.585 435.208 231.484 434.972C231.311 434.52 231.038 434.113 230.685 433.781C230.331 433.45 229.907 433.203 229.444 433.058C229.186 432.98 228.94 432.902 228.984 432.532C229.029 432.163 229.209 432.174 229.455 432.107C229.919 431.97 230.344 431.727 230.696 431.396C231.049 431.066 231.319 430.657 231.484 430.204C231.596 429.969 231.641 429.678 231.989 429.678C232.106 429.684 232.219 429.727 232.309 429.802C232.4 429.876 232.465 429.978 232.493 430.092C232.673 430.578 232.963 431.015 233.34 431.371C233.717 431.726 234.172 431.99 234.668 432.14C234.767 432.163 234.855 432.219 234.918 432.298C234.981 432.377 235.016 432.476 235.016 432.577ZM233.278 432.667L232.056 431.278C231.63 431.67 230.935 432.006 230.845 432.465C230.756 432.924 231.574 433.271 231.899 433.752L233.278 432.667Z" fill="#151E33"/>
<path d="M241.024 428.01C241.024 428.648 241.024 429.275 241.024 429.913C241.056 430.093 241.035 430.279 240.963 430.448C240.892 430.617 240.773 430.761 240.621 430.864C240.329 431.043 240.139 431.614 239.657 431.167C239.175 430.719 239.657 430.551 239.915 430.316C240.013 430.184 240.083 430.034 240.122 429.874C240.16 429.714 240.166 429.549 240.139 429.387C240.139 428.267 240.139 427.148 240.139 426.085C240.139 425.794 240.072 425.458 240.531 425.435C240.991 425.413 241.013 425.771 241.013 426.118C241.024 426.745 241.024 427.383 241.024 428.01Z" fill="#151E33"/>
<path d="M257.75 446.457C258.042 446.01 257.437 445.226 258.266 445.215C259.096 445.204 258.715 445.987 258.692 446.334C258.67 446.681 259.129 447.599 258.289 447.622C257.448 447.644 258.143 446.782 257.75 446.457Z" fill="#151E33"/>
<path d="M257.84 432.476V431.872C257.84 431.547 257.84 431.29 258.311 431.29C258.782 431.29 258.715 431.525 258.715 431.827C258.715 432.129 258.715 432.745 258.715 433.215C258.715 433.685 258.647 433.786 258.244 433.786C257.84 433.786 257.84 433.45 257.829 433.17V432.476H257.84Z" fill="#151E33"/>
<path d="M234.511 451.125H233.39C232.269 451.125 232.067 450.834 232.269 449.771C232.325 449.502 232.426 449.357 232.706 449.345C232.987 449.334 233.144 449.413 233.11 449.659C233.11 450.286 233.446 450.274 233.872 450.263H235.173C235.554 450.263 235.935 450.263 235.912 449.737C235.912 449.446 236.069 449.334 236.361 449.334C236.652 449.334 236.731 449.614 236.764 449.883C236.888 451.092 236.854 451.136 235.643 451.125H234.511Z" fill="#151E33"/>
<path d="M234.545 459.856H233.345C232.325 459.856 232.09 459.543 232.303 458.536C232.359 458.312 232.426 458.155 232.673 458.155C232.919 458.155 233.188 458.155 233.166 458.468C233.166 458.983 233.469 459.039 233.805 458.961C234.578 458.771 235.677 459.565 236.114 458.222C236.114 458.077 236.585 458.054 236.708 458.289C236.86 458.694 236.883 459.136 236.776 459.554C236.708 459.991 236.305 459.845 236.036 459.856C235.543 459.856 235.038 459.856 234.545 459.856Z" fill="#151E33"/>
<path d="M253.053 456.498C253.053 457.797 253.053 459.095 253.053 460.394C253.053 460.976 252.941 461.211 252.302 461.211C249.671 461.211 247.056 461.211 244.455 461.211C243.816 461.211 243.659 460.987 243.659 460.405C243.659 457.771 243.659 455.14 243.659 452.513C243.659 451.998 243.816 451.797 244.343 451.808C247.033 451.808 249.731 451.808 252.437 451.808C252.986 451.808 253.109 452.032 253.098 452.524C253.042 453.845 253.053 455.166 253.053 456.498ZM252.201 456.498C252.201 455.379 252.201 454.371 252.201 453.297C252.201 452.771 252.033 452.614 251.506 452.614C249.41 452.614 247.302 452.614 245.195 452.614C244.702 452.614 244.477 452.737 244.477 453.286C244.477 455.39 244.477 457.483 244.477 459.588C244.477 460.114 244.668 460.282 245.184 460.271C247.28 460.271 249.387 460.271 251.495 460.271C252.011 460.271 252.201 460.136 252.179 459.588C252.168 458.614 252.235 457.584 252.235 456.543L252.201 456.498Z" fill="#151E33"/>
<path d="M248.423 447.241C248.442 447.426 248.422 447.614 248.363 447.79C248.305 447.967 248.209 448.13 248.083 448.267C247.957 448.405 247.803 448.514 247.632 448.588C247.461 448.662 247.276 448.699 247.089 448.696C246.921 448.699 246.754 448.668 246.598 448.605C246.442 448.542 246.301 448.448 246.183 448.329C246.064 448.209 245.971 448.067 245.909 447.911C245.847 447.755 245.818 447.588 245.823 447.42C245.816 447.244 245.846 447.069 245.911 446.906C245.976 446.743 246.075 446.595 246.2 446.471C246.326 446.348 246.476 446.252 246.64 446.19C246.805 446.128 246.981 446.101 247.157 446.11C247.474 446.095 247.785 446.205 248.022 446.416C248.259 446.628 248.403 446.924 248.423 447.241ZM247.594 447.386C247.588 447.271 247.539 447.161 247.456 447.08C247.372 446.999 247.262 446.953 247.145 446.95C247.087 446.944 247.027 446.95 246.971 446.968C246.915 446.985 246.863 447.015 246.819 447.054C246.775 447.093 246.739 447.14 246.714 447.194C246.689 447.247 246.676 447.305 246.675 447.364C246.666 447.431 246.672 447.5 246.694 447.564C246.715 447.628 246.751 447.687 246.798 447.736C246.846 447.784 246.904 447.821 246.968 447.844C247.032 447.867 247.1 447.875 247.168 447.868C247.437 447.868 247.56 447.666 247.594 447.386Z" fill="#151E33"/>
<path d="M245.397 447.375C245.398 447.548 245.365 447.72 245.3 447.88C245.235 448.04 245.138 448.186 245.016 448.309C244.894 448.431 244.749 448.529 244.589 448.595C244.43 448.662 244.258 448.696 244.085 448.696C243.911 448.699 243.739 448.667 243.578 448.602C243.418 448.536 243.272 448.438 243.15 448.315C243.029 448.191 242.933 448.044 242.871 447.883C242.808 447.721 242.778 447.548 242.785 447.375C242.778 447.209 242.806 447.044 242.866 446.889C242.926 446.735 243.017 446.594 243.134 446.475C243.25 446.357 243.39 446.263 243.544 446.201C243.698 446.138 243.863 446.107 244.029 446.11C244.202 446.101 244.376 446.127 244.539 446.186C244.703 446.245 244.853 446.337 244.98 446.454C245.108 446.572 245.21 446.715 245.282 446.873C245.353 447.031 245.392 447.202 245.397 447.375ZM244.085 446.939C243.971 446.933 243.859 446.971 243.773 447.047C243.687 447.122 243.634 447.228 243.625 447.342C243.611 447.406 243.612 447.472 243.626 447.536C243.64 447.6 243.667 447.661 243.707 447.713C243.746 447.766 243.796 447.809 243.854 447.841C243.911 447.872 243.975 447.891 244.041 447.896C244.106 447.901 244.172 447.891 244.234 447.869C244.295 447.846 244.351 447.81 244.398 447.764C244.445 447.718 244.481 447.663 244.504 447.601C244.528 447.54 244.538 447.474 244.533 447.409C244.556 447.129 244.388 446.995 244.085 446.939Z" fill="#151E33"/>
<rect x="98" width="97" height="97" rx="48.5" fill="#FBC800"/>
<rect x="1" width="97" height="191" rx="48.5" fill="#E84F47"/>
<path d="M77.7024 52.3092C77.7024 36.6745 65.0091 24 49.3512 24C33.6933 24 21 36.6745 21 52.3092C21 67.944 33.6933 80.6185 49.3512 80.6185C65.0091 80.6185 77.7024 67.944 77.7024 52.3092Z" fill="#5926A6"/>
<path d="M288.702 46.3092C288.702 30.6745 276.009 18 260.351 18C244.693 18 232 30.6745 232 46.3092C232 61.944 244.693 74.6185 260.351 74.6185C276.009 74.6185 288.702 61.944 288.702 46.3092Z" fill="#E84F47"/>
</svg>
