<svg width="25" height="24" viewBox="0 0 25 24" fill="none" xmlns="http://www.w3.org/2000/svg">
<g id="jam:menu" clip-path="url(#clip0_122_943)">
<path id="Vector" d="M2.57732 4H11.1488C11.6034 4 12.0394 4.16857 12.3609 4.46863C12.6824 4.76869 12.863 5.17565 12.863 5.6C12.863 6.02435 12.6824 6.43131 12.3609 6.73137C12.0394 7.03143 11.6034 7.2 11.1488 7.2H2.57732C2.12267 7.2 1.68663 7.03143 1.36514 6.73137C1.04365 6.43131 0.863037 6.02435 0.863037 5.6C0.863037 5.17565 1.04365 4.76869 1.36514 4.46863C1.68663 4.16857 2.12267 4 2.57732 4ZM14.5773 16.8H23.1488C23.6034 16.8 24.0394 16.9686 24.3609 17.2686C24.6824 17.5687 24.863 17.9757 24.863 18.4C24.863 18.8243 24.6824 19.2313 24.3609 19.5314C24.0394 19.8314 23.6034 20 23.1488 20H14.5773C14.1227 20 13.6866 19.8314 13.3651 19.5314C13.0436 19.2313 12.863 18.8243 12.863 18.4C12.863 17.9757 13.0436 17.5687 13.3651 17.2686C13.6866 16.9686 14.1227 16.8 14.5773 16.8ZM2.57732 10.4H23.1488C23.6034 10.4 24.0394 10.5686 24.3609 10.8686C24.6824 11.1687 24.863 11.5757 24.863 12C24.863 12.4243 24.6824 12.8313 24.3609 13.1314C24.0394 13.4314 23.6034 13.6 23.1488 13.6H2.57732C2.12267 13.6 1.68663 13.4314 1.36514 13.1314C1.04365 12.8313 0.863037 12.4243 0.863037 12C0.863037 11.5757 1.04365 11.1687 1.36514 10.8686C1.68663 10.5686 2.12267 10.4 2.57732 10.4Z" fill="black"/>
</g>
<defs>
<clipPath id="clip0_122_943">
<rect width="24" height="24" fill="white" transform="translate(0.863037)"/>
</clipPath>
</defs>
</svg>
