<svg width="73" height="24" viewBox="0 0 73 24" fill="none" xmlns="http://www.w3.org/2000/svg">
<g id="logo 1" clip-path="url(#clip0_122_934)">
<g id="Capa 2">
<g id="Capa 1">
<path id="Vector" d="M11.9189 1.06238C10.7109 0.365092 9.34057 -0.00194227 7.94573 -0.00183103C6.55089 -0.00171979 5.18065 0.365533 3.97272 1.06302C2.76479 1.7605 1.76173 2.76365 1.06434 3.97163C0.366953 5.17962 -0.000188335 6.54989 -0.000186573 7.94473V21.8537C-0.00737645 22.1191 0.0386818 22.3832 0.135268 22.6305C0.231854 22.8778 0.377011 23.1032 0.562164 23.2934C0.747318 23.4837 0.968714 23.6349 1.21328 23.7381C1.45784 23.8414 1.72062 23.8946 1.98609 23.8946C2.25155 23.8946 2.51433 23.8414 2.75889 23.7381C3.00346 23.6349 3.22485 23.4837 3.41001 23.2934C3.59516 23.1032 3.74032 22.8778 3.8369 22.6305C3.93349 22.3832 3.97955 22.1191 3.97236 21.8537V7.84268C4.0006 6.79887 4.43854 5.80812 5.19147 5.08464C5.9444 4.36116 6.95183 3.96309 7.99593 3.9765C9.04004 3.98991 10.0369 4.41372 10.771 5.15629C11.5051 5.89887 11.9175 6.90054 11.9189 7.94473V19.8667C11.9189 20.9202 12.3372 21.9306 13.0818 22.6758C13.8265 23.4209 14.8365 23.84 15.89 23.8407V7.94473C15.8907 6.54987 15.5241 5.17942 14.827 3.97125C14.1299 2.76308 13.1269 1.75981 11.9189 1.06238Z" fill="#151E33"/>
<path id="Vector_2" d="M36.7369 1.65314C36.4829 1.46301 36.2181 1.28778 35.9439 1.12833C34.7377 0.433991 33.3704 0.0685425 31.9786 0.0685425C30.5869 0.0685425 29.2195 0.433991 28.0134 1.12833L27.8384 1.23475C27.6926 1.3193 27.5571 1.41115 27.4215 1.50882C27.353 1.55693 27.2859 1.60649 27.2188 1.6546C27.1518 1.70271 27.0876 1.75519 27.0235 1.80767C26.9594 1.86015 26.8952 1.90972 26.834 1.96074C26.7713 2.01468 26.7101 2.06862 26.6503 2.12402L26.522 2.24356C26.4914 2.2698 26.4608 2.30041 26.4316 2.33103C26.4025 2.36164 26.3704 2.38934 26.3412 2.42141C26.3121 2.45348 26.2902 2.47098 26.264 2.49868L26.1765 2.59198C26.1415 2.62842 26.108 2.66632 26.0745 2.70277L26.0118 2.77566C25.9826 2.80773 25.952 2.84126 25.9258 2.87625C25.8995 2.91124 25.8616 2.95206 25.831 2.98996C25.8075 3.01637 25.7856 3.04411 25.7654 3.07306C25.7392 3.10367 25.7158 3.13428 25.6925 3.1649C25.6692 3.19551 25.6211 3.2582 25.5876 3.31068C25.5751 3.32611 25.5634 3.34217 25.5526 3.35879C25.5205 3.40106 25.4913 3.44334 25.4607 3.48707C25.4301 3.53081 25.4112 3.56142 25.3849 3.59787C25.3587 3.63431 25.347 3.65618 25.3281 3.68534C25.3091 3.71449 25.2639 3.78593 25.2333 3.83112C25.2244 3.843 25.2166 3.85569 25.21 3.86902C25.1794 3.91713 25.1502 3.9667 25.1225 4.0148C25.0948 4.06291 25.0788 4.08915 25.0584 4.12705C25.038 4.16496 25.0146 4.20578 24.9928 4.24514C24.9709 4.2845 24.968 4.29325 24.9534 4.31949C24.9213 4.3778 24.8922 4.43903 24.863 4.4988V4.50754C24.8295 4.57315 24.7989 4.64021 24.7697 4.70581C24.7566 4.73205 24.7449 4.75975 24.7333 4.78599C24.7099 4.83701 24.6881 4.88949 24.6677 4.94052C24.6575 4.96384 24.6473 4.98717 24.6385 5.01195C24.6166 5.06151 24.5962 5.114 24.5773 5.15773C24.5583 5.20146 24.5481 5.23208 24.5365 5.26998C24.5248 5.30788 24.5029 5.35891 24.4884 5.40264C24.4607 5.47991 24.4359 5.55717 24.4126 5.63589C24.4009 5.6738 24.3878 5.71316 24.3776 5.75106C24.3674 5.78896 24.3469 5.85311 24.3338 5.90559C24.3207 5.95807 24.2959 6.05137 24.2784 6.12572C24.2609 6.20007 24.242 6.28316 24.2245 6.36334C24.2235 6.36865 24.2235 6.37408 24.2245 6.37938C24.2128 6.4304 24.2041 6.48434 24.1953 6.53536C24.1866 6.58639 24.1778 6.62575 24.1706 6.67094C24.156 6.74966 24.1443 6.82984 24.1326 6.91002C24.121 6.9902 24.1122 7.08059 24.1035 7.16806C24.0947 7.25552 24.086 7.34737 24.0802 7.43775C24.067 7.61852 24.0612 7.79929 24.0612 7.98297V15.9179C24.0612 16.1015 24.0612 16.2838 24.0802 16.4631C24.0802 16.5535 24.0933 16.6438 24.1035 16.7328C24.1137 16.8217 24.1224 16.9063 24.1326 16.9908C24.1429 17.0754 24.156 17.1512 24.1706 17.2313C24.1764 17.2722 24.1837 17.313 24.1924 17.3538C24.2012 17.4107 24.2128 17.4661 24.2245 17.5229C24.2238 17.5282 24.2238 17.5336 24.2245 17.5389C24.242 17.6191 24.258 17.6993 24.2784 17.778C24.2988 17.8568 24.3163 17.9238 24.3382 18.0069C24.3484 18.0506 24.3615 18.0929 24.3746 18.1367C24.3878 18.1804 24.3994 18.2227 24.4126 18.2649C24.4359 18.3437 24.4621 18.4224 24.4898 18.4996C24.5 18.5361 24.5146 18.574 24.5277 18.609C24.5408 18.644 24.5627 18.7067 24.5817 18.7548C24.6094 18.8262 24.6371 18.9005 24.6677 18.9661C24.6983 19.0318 24.7099 19.0697 24.7333 19.1207C24.7449 19.1469 24.7566 19.1746 24.7697 19.2009C24.7989 19.2665 24.8295 19.3335 24.863 19.3991C24.8628 19.402 24.8628 19.405 24.863 19.4079C24.8922 19.4676 24.9213 19.5289 24.9534 19.5886C24.968 19.6134 24.9796 19.6382 24.9928 19.6615C25.0059 19.6849 25.035 19.7417 25.0584 19.7796C25.0817 19.8175 25.1006 19.8554 25.1225 19.8933C25.1444 19.9312 25.1794 19.991 25.21 20.0391C25.2166 20.0524 25.2244 20.0651 25.2333 20.077C25.2639 20.128 25.2945 20.1776 25.3281 20.2228C25.3616 20.268 25.3645 20.2826 25.3849 20.3103L25.4607 20.421C25.4913 20.4648 25.5205 20.5085 25.5526 20.5493C25.5642 20.5683 25.5788 20.5872 25.5919 20.6047C25.6196 20.6441 25.6488 20.6835 25.6794 20.7214L25.7639 20.8307L25.8456 20.9327C25.8704 20.9619 25.8937 20.9911 25.9185 21.0187C25.9433 21.0464 25.9797 21.0916 26.0118 21.1281C26.0438 21.1645 26.0541 21.1762 26.0745 21.1995C26.0949 21.2228 26.1517 21.2841 26.1911 21.3249C26.2071 21.3438 26.2246 21.3613 26.2407 21.3788C26.2844 21.4255 26.3281 21.4692 26.3733 21.5144C26.3893 21.5304 26.4068 21.5465 26.4229 21.564C26.4608 21.6033 26.5001 21.6398 26.5395 21.6748C26.5789 21.7098 26.5862 21.72 26.6109 21.7418C26.6357 21.7637 26.6824 21.8089 26.7203 21.841C26.7582 21.873 26.8252 21.9343 26.8792 21.9795L27.0118 22.0902C27.0993 22.1588 27.1882 22.2273 27.2786 22.2929L27.4244 22.3964L27.4463 22.4124C27.506 22.4547 27.5687 22.4955 27.6299 22.5378L27.6504 22.5524L27.8472 22.6748C27.9055 22.7127 27.9638 22.7463 28.0221 22.7812C29.2283 23.4756 30.5956 23.841 31.9874 23.841C33.3791 23.841 34.7464 23.4756 35.9526 22.7812C36.224 22.6286 36.4859 22.4597 36.7369 22.2754C37.7227 21.5378 38.5227 20.5803 39.0734 19.4792C39.6241 18.3781 39.9103 17.1636 39.9091 15.9324V11.9657C39.3883 11.9655 38.8726 12.068 38.3915 12.2672C37.9103 12.4664 37.4731 12.7584 37.1048 13.1267C36.7366 13.4949 36.4445 13.9321 36.2453 14.4133C36.0461 14.8945 35.9437 15.4102 35.9439 15.931C35.9574 16.9826 35.5526 17.9966 34.8185 18.7498C34.0845 19.503 33.0813 19.9337 32.0296 19.9473C30.978 19.9608 29.964 19.556 29.2108 18.8219C28.4576 18.0879 28.0269 17.0847 28.0134 16.033V7.8955C28.0269 6.84385 28.4576 5.84065 29.2108 5.10659C29.964 4.37253 30.978 3.96774 32.0296 3.98127C33.0813 3.99481 34.0845 4.42555 34.8185 5.17875C35.5526 5.93195 35.9574 6.9459 35.9439 7.99755V8.27745C35.9439 8.80328 36.1527 9.30757 36.5246 9.67938C36.8964 10.0512 37.4007 10.2601 37.9265 10.2601C38.4523 10.2601 38.9566 10.0512 39.3284 9.67938C39.7002 9.30757 39.9091 8.80328 39.9091 8.27745V7.99755C39.9101 6.7662 39.6239 5.55158 39.0733 4.45023C38.5226 3.34887 37.7226 2.39114 36.7369 1.65314Z" fill="#151E33"/>
<path id="Vector_3" d="M19.8263 0.0743414H20.1382C20.6297 0.0743414 21.1009 0.269555 21.4484 0.617038C21.7959 0.964521 21.9911 1.43581 21.9911 1.92722V20.1499C21.9911 21.1331 21.6005 22.0761 20.9053 22.7713C20.2101 23.4665 19.2671 23.8571 18.2839 23.8571H17.9719V1.92868C17.9717 1.68511 18.0196 1.44389 18.1127 1.21883C18.2058 0.993764 18.3424 0.789267 18.5146 0.617037C18.6869 0.444808 18.8913 0.308226 19.1164 0.215104C19.3415 0.121983 19.5827 0.0741497 19.8263 0.0743414Z" fill="#151E33"/>
<path id="Vector_4" d="M55.8066 20.5319L47.4198 12.1451L53.7934 5.76566C54.1612 5.39809 54.453 4.96164 54.6521 4.48125C54.8512 4.00086 54.9536 3.48594 54.9536 2.96593C54.9536 2.44592 54.8512 1.931 54.6521 1.45061C54.453 0.970219 54.1612 0.533768 53.7934 0.166199L45.9212 8.05006V2.2188C45.9212 1.69375 45.7126 1.1902 45.3413 0.818934C44.97 0.447666 44.4665 0.239089 43.9414 0.239089C43.4164 0.239089 42.9128 0.447666 42.5416 0.818934C42.1703 1.1902 41.9617 1.69375 41.9617 2.2188V20.0406C41.9617 21.0907 42.3789 22.0978 43.1214 22.8403C43.864 23.5829 44.8711 24 45.9212 24V16.2401L53.0134 23.3323C53.3849 23.7035 53.8885 23.9119 54.4137 23.9119C54.9388 23.9119 55.4424 23.7035 55.8139 23.3323C56.1841 22.9599 56.3912 22.4557 56.3898 21.9306C56.3885 21.4055 56.1787 20.9024 55.8066 20.5319Z" fill="#151E33"/>
<path id="Vector_5" d="M68.9036 4.03522V7.91738C68.9036 10.1376 67.0857 11.9993 64.8654 11.9541C63.8288 11.9338 62.8414 11.5078 62.1155 10.7674C61.3896 10.0271 60.9831 9.0315 60.9833 7.99465V4.03522C60.9833 2.98498 60.5662 1.97774 59.8237 1.23497C59.0812 0.492204 58.0741 0.0747274 57.0239 0.0743408V7.99465C57.0096 9.0437 57.204 10.0851 57.5956 11.0585C57.9872 12.0318 58.5683 12.9176 59.3051 13.6645C60.0419 14.4114 60.9197 15.0044 61.8877 15.4092C62.8556 15.814 63.8943 16.0224 64.9434 16.0224C65.9926 16.0224 67.0313 15.814 67.9992 15.4092C68.9671 15.0044 69.845 14.4114 70.5818 13.6645C71.3186 12.9176 71.8997 12.0318 72.2913 11.0585C72.6829 10.0851 72.8773 9.0437 72.863 7.99465V0.0743408C71.8128 0.0747274 70.8057 0.492204 70.0632 1.23497C69.3207 1.97774 68.9036 2.98498 68.9036 4.03522Z" fill="#E74F47"/>
<path id="Vector_6" d="M65.0958 17.8947H64.7897C63.7808 17.8947 62.963 18.7125 62.963 19.7213V22.0071C62.963 23.016 63.7808 23.8338 64.7897 23.8338H65.0958C66.1046 23.8338 66.9224 23.016 66.9224 22.0071V19.7213C66.9224 18.7125 66.1046 17.8947 65.0958 17.8947Z" fill="#FBC800"/>
</g>
</g>
</g>
<defs>
<clipPath id="clip0_122_934">
<rect width="72.863" height="24" fill="white"/>
</clipPath>
</defs>
</svg>
