<svg width="30" height="30" viewBox="0 0 30 30" fill="none" xmlns="http://www.w3.org/2000/svg">
<g id="system-uicons:files-history">
<g id="Group">
<path id="Vector" fill-rule="evenodd" clip-rule="evenodd" d="M25 20.7143V10.7143L17.8571 3.57141H10.7143C9.9565 3.57141 9.22977 3.87243 8.69395 4.40825C8.15814 4.94407 7.85712 5.67079 7.85712 6.42855V20.7143C7.85712 21.472 8.15814 22.1988 8.69395 22.7346C9.22977 23.2704 9.9565 23.5714 10.7143 23.5714H22.1428C22.9006 23.5714 23.6273 23.2704 24.1631 22.7346C24.699 22.1988 25 21.472 25 20.7143Z" stroke="#151E33" stroke-width="1.5" stroke-linecap="round" stroke-linejoin="round"/>
<path id="Vector_2" opacity="0.5" d="M16.4286 9.28573V15H20.7143M7.85714 6.42859C7.09938 6.42859 6.37266 6.72961 5.83684 7.26543C5.30102 7.80124 5 8.52797 5 9.28573V23.5714C5 24.3292 5.30102 25.0559 5.83684 25.5918C6.37266 26.1276 7.09938 26.4286 7.85714 26.4286H19.2857C20.0435 26.4286 20.7702 26.1276 21.306 25.5918C21.8418 25.0559 22.1429 24.3292 22.1429 23.5714" stroke="#151E33" stroke-width="1.5" stroke-linecap="round" stroke-linejoin="round"/>
</g>
</g>
</svg>
